# xmcd CD database file
#
# Track frame offsets:
#	225
#	12620
#	23577
#	39514
#	47859
#	58469
#	69920
#	83201
#	95188
#	103923
#	116034
#	126405
#
# Disc length: 1787 seconds
#
# Revision: 0
# Processed by: cddbd v1.5.2PL0 Copyright (c) Steve Scherf et al.
# Submitted via: CDex 1.70beta2
#
DISCID=b006f80c
DTITLE=Big Joe Williams - Chicago 63
DYEAR=1963
DGENRE=Blues
TTITLE0=Sugar Mama
TTITLE1=Sinkin' Blues
TTITLE2=Nobody Want's You When Your Down And Out
TTITLE3=Baby Please Don't Go
TTITLE4=Put On Your Nightcap Baby
TTITLE5=Bye Bye Baby Blues
TTITLE6=Don't Want No Big Fat Woman
TTITLE7=Ride In My New Car Blues
TTITLE8=Goin' Away,Won't Be Back Till Fall
TTITLE9=Sloppy Drunk Blues
TTITLE10=44 Blues
TTITLE11=Terraplane Blues
EXTD=YEAR: 1963
EXTT0=
EXTT1=
EXTT2=
EXTT3=
EXTT4=
EXTT5=
EXTT6=
EXTT7=
EXTT8=
EXTT9=
EXTT10=
EXTT11=
PLAYORDER=
